<mxfile host="65bd71144e">
    <diagram id="xY3fij-LBEGWscEYTfHG" name="Page-1">
        <mxGraphModel dx="1462" dy="1532" grid="1" gridSize="10" guides="1" tooltips="1" connect="1" arrows="1" fold="1" page="1" pageScale="1" pageWidth="850" pageHeight="1100" math="0" shadow="0">
            <root>
                <mxCell id="0"/>
                <mxCell id="1" parent="0"/>
                <mxCell id="27" value="" style="edgeStyle=none;html=1;" parent="1" edge="1">
                    <mxGeometry relative="1" as="geometry">
                        <mxPoint x="194" y="368" as="sourcePoint"/>
                        <mxPoint x="234" y="368" as="targetPoint"/>
                    </mxGeometry>
                </mxCell>
                <mxCell id="3" value="START" style="rounded=1;whiteSpace=wrap;html=1;labelBackgroundColor=none;fillColor=#e51400;fontColor=#ffffff;strokeColor=#B20000;" parent="1" vertex="1">
                    <mxGeometry x="74" y="337" width="120" height="60" as="geometry"/>
                </mxCell>
                <mxCell id="31" value="" style="edgeStyle=none;html=1;entryX=0;entryY=0.5;entryDx=0;entryDy=0;" parent="1" target="76" edge="1">
                    <mxGeometry relative="1" as="geometry">
                        <mxPoint x="354" y="368" as="sourcePoint"/>
                        <mxPoint x="379" y="368" as="targetPoint"/>
                    </mxGeometry>
                </mxCell>
                <mxCell id="34" value="" style="edgeStyle=none;html=1;" parent="1" source="29" target="33" edge="1">
                    <mxGeometry relative="1" as="geometry"/>
                </mxCell>
                <mxCell id="96" value="" style="edgeStyle=none;html=1;endArrow=none;endFill=0;endSize=6;" parent="1" source="29" target="95" edge="1">
                    <mxGeometry relative="1" as="geometry"/>
                </mxCell>
                <mxCell id="29" value="&lt;b&gt;MENU UTAMA&lt;br&gt;&lt;/b&gt;&lt;hr&gt;1. Cari&amp;nbsp; Buku&lt;br&gt;2. Lihat Semua buku&lt;br&gt;3.&amp;nbsp; Tambah Buku&lt;br&gt;4. Pinjaman&lt;br&gt;5. Rekomendasi Buku&lt;br&gt;0. Keluar&amp;nbsp;" style="whiteSpace=wrap;html=1;aspect=fixed;verticalAlign=middle;fillColor=#e3c800;fontColor=#000000;strokeColor=#B09500;backgroundOutline=0;" parent="1" vertex="1">
                    <mxGeometry x="234" y="307" width="120" height="120" as="geometry"/>
                </mxCell>
                <mxCell id="37" value="" style="edgeStyle=none;html=1;" parent="1" source="32" target="38" edge="1">
                    <mxGeometry relative="1" as="geometry">
                        <mxPoint x="659" y="167" as="targetPoint"/>
                    </mxGeometry>
                </mxCell>
                <mxCell id="45" value="" style="edgeStyle=none;html=1;" parent="1" source="32" target="44" edge="1">
                    <mxGeometry relative="1" as="geometry"/>
                </mxCell>
                <mxCell id="32" value="1. Cari buku berdasrkan judul&lt;br&gt;2. Cari buku berdasarkan author" style="rounded=0;whiteSpace=wrap;html=1;labelBackgroundColor=none;align=center;fillColor=#f0a30a;fontColor=#000000;strokeColor=#BD7000;" parent="1" vertex="1">
                    <mxGeometry x="384" y="137" width="146" height="60" as="geometry"/>
                </mxCell>
                <mxCell id="35" value="" style="edgeStyle=none;html=1;" parent="1" source="33" target="32" edge="1">
                    <mxGeometry relative="1" as="geometry"/>
                </mxCell>
                <mxCell id="33" value="Input = 1" style="rhombus;whiteSpace=wrap;html=1;fillColor=#fa6800;strokeColor=#C73500;fontColor=#000000;" parent="1" vertex="1">
                    <mxGeometry x="254" y="127" width="80" height="80" as="geometry"/>
                </mxCell>
                <mxCell id="40" value="" style="edgeStyle=none;html=1;" parent="1" source="38" target="39" edge="1">
                    <mxGeometry relative="1" as="geometry"/>
                </mxCell>
                <mxCell id="38" value="input =1" style="rhombus;whiteSpace=wrap;html=1;labelBackgroundColor=none;fillColor=#fa6800;fontColor=#000000;strokeColor=#C73500;" parent="1" vertex="1">
                    <mxGeometry x="610" y="127" width="80" height="80" as="geometry"/>
                </mxCell>
                <mxCell id="43" value="" style="edgeStyle=none;html=1;entryX=0.5;entryY=1;entryDx=0;entryDy=0;" parent="1" source="39" target="51" edge="1">
                    <mxGeometry relative="1" as="geometry">
                        <mxPoint x="830" y="60" as="targetPoint"/>
                    </mxGeometry>
                </mxCell>
                <mxCell id="39" value="Cari buku berdasrkan judul" style="whiteSpace=wrap;html=1;labelBackgroundColor=none;fillColor=#f0a30a;fontColor=#000000;strokeColor=#BD7000;" parent="1" vertex="1">
                    <mxGeometry x="764" y="137" width="120" height="60" as="geometry"/>
                </mxCell>
                <mxCell id="47" value="" style="edgeStyle=none;html=1;" parent="1" source="44" target="46" edge="1">
                    <mxGeometry relative="1" as="geometry"/>
                </mxCell>
                <mxCell id="44" value="input = 2" style="rhombus;whiteSpace=wrap;html=1;rounded=0;labelBackgroundColor=none;fillColor=#fa6800;fontColor=#000000;strokeColor=#C73500;" parent="1" vertex="1">
                    <mxGeometry x="417" y="-13" width="80" height="80" as="geometry"/>
                </mxCell>
                <mxCell id="49" value="" style="edgeStyle=none;html=1;entryX=0;entryY=0.5;entryDx=0;entryDy=0;" parent="1" source="46" target="51" edge="1">
                    <mxGeometry relative="1" as="geometry">
                        <mxPoint x="817" y="29" as="targetPoint"/>
                    </mxGeometry>
                </mxCell>
                <mxCell id="46" value="Cari buku berdasarkan author" style="whiteSpace=wrap;html=1;rounded=0;labelBackgroundColor=none;fillColor=#f0a30a;fontColor=#000000;strokeColor=#BD7000;" parent="1" vertex="1">
                    <mxGeometry x="557" y="-1" width="120" height="60" as="geometry"/>
                </mxCell>
                <mxCell id="51" value="Kembali ke&amp;nbsp;&lt;br&gt;&lt;b&gt;MENU UTAMA&lt;br&gt;&lt;/b&gt;" style="rounded=0;whiteSpace=wrap;html=1;labelBackgroundColor=none;fillColor=#f0a30a;fontColor=#000000;strokeColor=#BD7000;" parent="1" vertex="1">
                    <mxGeometry x="762" y="-1" width="120" height="60" as="geometry"/>
                </mxCell>
                <mxCell id="52" value="" style="endArrow=classic;html=1;endSize=6;exitX=1;exitY=0;exitDx=0;exitDy=0;" parent="1" source="29" edge="1">
                    <mxGeometry width="50" height="50" relative="1" as="geometry">
                        <mxPoint x="360" y="300" as="sourcePoint"/>
                        <mxPoint x="390" y="270" as="targetPoint"/>
                        <Array as="points">
                            <mxPoint x="380" y="280"/>
                        </Array>
                    </mxGeometry>
                </mxCell>
                <mxCell id="57" value="" style="edgeStyle=none;html=1;endSize=6;" parent="1" source="55" target="56" edge="1">
                    <mxGeometry relative="1" as="geometry"/>
                </mxCell>
                <mxCell id="55" value="Input = 2" style="rhombus;whiteSpace=wrap;html=1;labelBackgroundColor=none;fillColor=#fa6800;fontColor=#000000;strokeColor=#C73500;" parent="1" vertex="1">
                    <mxGeometry x="390" y="227" width="80" height="80" as="geometry"/>
                </mxCell>
                <mxCell id="60" value="" style="edgeStyle=none;html=1;endSize=6;" parent="1" source="56" target="59" edge="1">
                    <mxGeometry relative="1" as="geometry"/>
                </mxCell>
                <mxCell id="65" value="" style="edgeStyle=none;html=1;endSize=6;endArrow=none;endFill=0;" parent="1" source="56" edge="1">
                    <mxGeometry relative="1" as="geometry">
                        <mxPoint x="590" y="220" as="targetPoint"/>
                        <Array as="points">
                            <mxPoint x="590" y="210"/>
                        </Array>
                    </mxGeometry>
                </mxCell>
                <mxCell id="56" value="1. Urut berdasrkan judul&lt;br&gt;2. Urut berdasarkan tahun terbit" style="whiteSpace=wrap;html=1;labelBackgroundColor=none;fillColor=#f0a30a;fontColor=#000000;strokeColor=#BD7000;" parent="1" vertex="1">
                    <mxGeometry x="530" y="237" width="120" height="60" as="geometry"/>
                </mxCell>
                <mxCell id="62" value="" style="edgeStyle=none;html=1;endSize=6;" parent="1" source="59" target="61" edge="1">
                    <mxGeometry relative="1" as="geometry"/>
                </mxCell>
                <mxCell id="59" value="input = 1" style="rhombus;whiteSpace=wrap;html=1;labelBackgroundColor=none;fillColor=#fa6800;fontColor=#000000;strokeColor=#C73500;" parent="1" vertex="1">
                    <mxGeometry x="750" y="227" width="80" height="80" as="geometry"/>
                </mxCell>
                <mxCell id="71" value="" style="edgeStyle=none;html=1;endArrow=none;endFill=0;endSize=6;" parent="1" source="61" edge="1">
                    <mxGeometry relative="1" as="geometry">
                        <mxPoint x="1410" y="270" as="targetPoint"/>
                    </mxGeometry>
                </mxCell>
                <mxCell id="61" value="Urut berdaskan judul" style="whiteSpace=wrap;html=1;labelBackgroundColor=none;fillColor=#f0a30a;fontColor=#000000;strokeColor=#BD7000;" parent="1" vertex="1">
                    <mxGeometry x="890" y="237" width="120" height="60" as="geometry"/>
                </mxCell>
                <mxCell id="66" value="" style="endArrow=classic;html=1;endSize=6;" parent="1" edge="1">
                    <mxGeometry width="50" height="50" relative="1" as="geometry">
                        <mxPoint x="588" y="213" as="sourcePoint"/>
                        <mxPoint x="998.4395604395604" y="217.5604395604396" as="targetPoint"/>
                    </mxGeometry>
                </mxCell>
                <mxCell id="69" value="" style="edgeStyle=none;html=1;endArrow=none;endFill=0;endSize=6;" parent="1" source="67" target="68" edge="1">
                    <mxGeometry relative="1" as="geometry"/>
                </mxCell>
                <mxCell id="67" value="input&amp;nbsp; = 2" style="rhombus;whiteSpace=wrap;html=1;labelBackgroundColor=none;fillColor=#fa6800;fontColor=#000000;strokeColor=#C73500;" parent="1" vertex="1">
                    <mxGeometry x="998" y="177" width="80" height="80" as="geometry"/>
                </mxCell>
                <mxCell id="73" value="" style="edgeStyle=none;html=1;endArrow=none;endFill=0;endSize=6;" parent="1" source="68" edge="1">
                    <mxGeometry relative="1" as="geometry">
                        <mxPoint x="1408" y="215" as="targetPoint"/>
                    </mxGeometry>
                </mxCell>
                <mxCell id="68" value="Urut berdasarkan author" style="whiteSpace=wrap;html=1;labelBackgroundColor=none;fillColor=#f0a30a;fontColor=#000000;strokeColor=#BD7000;" parent="1" vertex="1">
                    <mxGeometry x="1138" y="187" width="120" height="60" as="geometry"/>
                </mxCell>
                <mxCell id="74" value="" style="endArrow=none;html=1;endSize=6;endFill=0;" parent="1" edge="1">
                    <mxGeometry width="50" height="50" relative="1" as="geometry">
                        <mxPoint x="1410" y="268" as="sourcePoint"/>
                        <mxPoint x="1410" y="30" as="targetPoint"/>
                    </mxGeometry>
                </mxCell>
                <mxCell id="75" value="" style="endArrow=classic;html=1;endSize=6;entryX=1;entryY=0.5;entryDx=0;entryDy=0;" parent="1" target="51" edge="1">
                    <mxGeometry width="50" height="50" relative="1" as="geometry">
                        <mxPoint x="1410" y="30" as="sourcePoint"/>
                        <mxPoint x="1290" y="9" as="targetPoint"/>
                    </mxGeometry>
                </mxCell>
                <mxCell id="138" value="" style="edgeStyle=none;html=1;" edge="1" parent="1" source="76" target="136">
                    <mxGeometry relative="1" as="geometry"/>
                </mxCell>
                <mxCell id="76" value="input = 0" style="rhombus;whiteSpace=wrap;html=1;labelBackgroundColor=none;fillColor=#fa6800;fontColor=#000000;strokeColor=#C73500;" parent="1" vertex="1">
                    <mxGeometry x="391" y="327" width="80" height="80" as="geometry"/>
                </mxCell>
                <mxCell id="80" value="" style="endArrow=classic;html=1;endSize=6;" parent="1" edge="1">
                    <mxGeometry width="50" height="50" relative="1" as="geometry">
                        <mxPoint x="354" y="427" as="sourcePoint"/>
                        <mxPoint x="397" y="460" as="targetPoint"/>
                    </mxGeometry>
                </mxCell>
                <mxCell id="83" value="" style="edgeStyle=none;html=1;endArrow=none;endFill=0;endSize=6;" parent="1" source="81" target="82" edge="1">
                    <mxGeometry relative="1" as="geometry"/>
                </mxCell>
                <mxCell id="81" value="input = 3" style="rhombus;whiteSpace=wrap;html=1;labelBackgroundColor=none;fillColor=#fa6800;fontColor=#000000;strokeColor=#C73500;" parent="1" vertex="1">
                    <mxGeometry x="394" y="420" width="80" height="80" as="geometry"/>
                </mxCell>
                <mxCell id="85" value="" style="edgeStyle=none;html=1;endArrow=none;endFill=0;endSize=6;" parent="1" source="82" target="84" edge="1">
                    <mxGeometry relative="1" as="geometry"/>
                </mxCell>
                <mxCell id="82" value="input judul buku" style="shape=parallelogram;perimeter=parallelogramPerimeter;whiteSpace=wrap;html=1;fixedSize=1;labelBackgroundColor=none;fillColor=#6d8764;fontColor=#ffffff;strokeColor=#3A5431;" parent="1" vertex="1">
                    <mxGeometry x="534" y="430" width="120" height="60" as="geometry"/>
                </mxCell>
                <mxCell id="87" value="" style="edgeStyle=none;html=1;endArrow=none;endFill=0;endSize=6;" parent="1" source="84" target="86" edge="1">
                    <mxGeometry relative="1" as="geometry"/>
                </mxCell>
                <mxCell id="84" value="input nama author" style="shape=parallelogram;perimeter=parallelogramPerimeter;whiteSpace=wrap;html=1;fixedSize=1;labelBackgroundColor=none;fillColor=#6d8764;fontColor=#ffffff;strokeColor=#3A5431;" parent="1" vertex="1">
                    <mxGeometry x="734" y="430" width="120" height="60" as="geometry"/>
                </mxCell>
                <mxCell id="89" value="" style="edgeStyle=none;html=1;endArrow=none;endFill=0;endSize=6;" parent="1" source="86" target="88" edge="1">
                    <mxGeometry relative="1" as="geometry"/>
                </mxCell>
                <mxCell id="86" value="input tahun terbit" style="shape=parallelogram;perimeter=parallelogramPerimeter;whiteSpace=wrap;html=1;fixedSize=1;labelBackgroundColor=none;fillColor=#6d8764;fontColor=#ffffff;strokeColor=#3A5431;" parent="1" vertex="1">
                    <mxGeometry x="934" y="430" width="120" height="60" as="geometry"/>
                </mxCell>
                <mxCell id="93" value="" style="edgeStyle=none;html=1;endArrow=none;endFill=0;endSize=6;" parent="1" source="88" target="92" edge="1">
                    <mxGeometry relative="1" as="geometry"/>
                </mxCell>
                <mxCell id="88" value="input genre buku" style="shape=parallelogram;perimeter=parallelogramPerimeter;whiteSpace=wrap;html=1;fixedSize=1;labelBackgroundColor=none;fillColor=#6d8764;fontColor=#ffffff;strokeColor=#3A5431;" parent="1" vertex="1">
                    <mxGeometry x="1134" y="430" width="120" height="60" as="geometry"/>
                </mxCell>
                <mxCell id="92" value="output buku berhasil tersimpan" style="shape=parallelogram;perimeter=parallelogramPerimeter;whiteSpace=wrap;html=1;fixedSize=1;labelBackgroundColor=none;fillColor=#6d8764;fontColor=#ffffff;strokeColor=#3A5431;" parent="1" vertex="1">
                    <mxGeometry x="1342" y="429" width="134" height="60" as="geometry"/>
                </mxCell>
                <mxCell id="94" value="" style="endArrow=none;html=1;endSize=6;exitX=0.5;exitY=0;exitDx=0;exitDy=0;endFill=0;" parent="1" source="92" edge="1">
                    <mxGeometry width="50" height="50" relative="1" as="geometry">
                        <mxPoint x="1420" y="430" as="sourcePoint"/>
                        <mxPoint x="1410" y="270" as="targetPoint"/>
                    </mxGeometry>
                </mxCell>
                <mxCell id="98" value="" style="edgeStyle=none;html=1;endArrow=none;endFill=0;endSize=6;" parent="1" target="97" edge="1">
                    <mxGeometry relative="1" as="geometry">
                        <mxPoint x="444" y="530" as="sourcePoint"/>
                    </mxGeometry>
                </mxCell>
                <mxCell id="95" value="input = 4" style="rhombus;whiteSpace=wrap;html=1;fillColor=#fa6800;strokeColor=#C73500;fontColor=#000000;" parent="1" vertex="1">
                    <mxGeometry x="260" y="489" width="80" height="80" as="geometry"/>
                </mxCell>
                <mxCell id="100" value="" style="edgeStyle=none;html=1;endArrow=none;endFill=0;endSize=6;" parent="1" source="97" edge="1">
                    <mxGeometry relative="1" as="geometry">
                        <mxPoint x="284" y="714.5" as="targetPoint"/>
                    </mxGeometry>
                </mxCell>
                <mxCell id="102" value="" style="edgeStyle=none;html=1;endArrow=none;endFill=0;endSize=6;" parent="1" source="97" edge="1">
                    <mxGeometry relative="1" as="geometry">
                        <mxPoint x="604" y="714.5" as="targetPoint"/>
                    </mxGeometry>
                </mxCell>
                <mxCell id="104" value="" style="edgeStyle=none;html=1;endArrow=none;endFill=0;endSize=6;" parent="1" source="97" edge="1">
                    <mxGeometry relative="1" as="geometry">
                        <mxPoint x="444" y="865.5" as="targetPoint"/>
                    </mxGeometry>
                </mxCell>
                <mxCell id="97" value="1. Tambah peminjaman&lt;br&gt;2. Lihat semua peminjaman&lt;br&gt;3. cari peminjam&lt;br&gt;4. Lihat tabel peminjam&lt;br&gt;0. Keeluar&lt;br&gt;" style="whiteSpace=wrap;html=1;fillColor=#f0a30a;strokeColor=#BD7000;fontColor=#000000;" parent="1" vertex="1">
                    <mxGeometry x="384" y="659" width="120" height="111" as="geometry"/>
                </mxCell>
                <mxCell id="110" value="" style="edgeStyle=none;html=1;endArrow=none;endFill=0;endSize=6;" parent="1" source="99" target="109" edge="1">
                    <mxGeometry relative="1" as="geometry"/>
                </mxCell>
                <mxCell id="99" value="input = 1" style="rhombus;whiteSpace=wrap;html=1;fillColor=#fa6800;strokeColor=#C73500;fontColor=#000000;" parent="1" vertex="1">
                    <mxGeometry x="203" y="674.5" width="80" height="80" as="geometry"/>
                </mxCell>
                <mxCell id="118" value="" style="edgeStyle=none;html=1;endArrow=none;endFill=0;endSize=6;" parent="1" source="101" target="117" edge="1">
                    <mxGeometry relative="1" as="geometry"/>
                </mxCell>
                <mxCell id="101" value="input = 2" style="rhombus;whiteSpace=wrap;html=1;fillColor=#fa6800;strokeColor=#C73500;fontColor=#000000;" parent="1" vertex="1">
                    <mxGeometry x="603" y="674.5" width="80" height="80" as="geometry"/>
                </mxCell>
                <mxCell id="132" value="" style="edgeStyle=none;html=1;endArrow=none;endFill=0;endSize=6;" parent="1" source="103" edge="1">
                    <mxGeometry relative="1" as="geometry">
                        <mxPoint x="443" y="1035.5" as="targetPoint"/>
                    </mxGeometry>
                </mxCell>
                <mxCell id="103" value="input = 0" style="rhombus;whiteSpace=wrap;html=1;fillColor=#fa6800;strokeColor=#C73500;fontColor=#000000;" parent="1" vertex="1">
                    <mxGeometry x="403" y="865.5" width="80" height="80" as="geometry"/>
                </mxCell>
                <mxCell id="105" value="" style="endArrow=classic;html=1;endSize=6;" parent="1" edge="1">
                    <mxGeometry width="50" height="50" relative="1" as="geometry">
                        <mxPoint x="384" y="770" as="sourcePoint"/>
                        <mxPoint x="314" y="830" as="targetPoint"/>
                    </mxGeometry>
                </mxCell>
                <mxCell id="106" value="" style="endArrow=classic;html=1;endSize=6;" parent="1" edge="1">
                    <mxGeometry width="50" height="50" relative="1" as="geometry">
                        <mxPoint x="504" y="770" as="sourcePoint"/>
                        <mxPoint x="584" y="820" as="targetPoint"/>
                    </mxGeometry>
                </mxCell>
                <mxCell id="127" value="" style="edgeStyle=none;html=1;endArrow=none;endFill=0;endSize=6;" parent="1" source="107" target="126" edge="1">
                    <mxGeometry relative="1" as="geometry"/>
                </mxCell>
                <mxCell id="107" value="input = 4" style="rhombus;whiteSpace=wrap;html=1;labelBackgroundColor=none;fillColor=#fa6800;strokeColor=#C73500;fontColor=#000000;" parent="1" vertex="1">
                    <mxGeometry x="584" y="786" width="80" height="80" as="geometry"/>
                </mxCell>
                <mxCell id="122" value="" style="edgeStyle=none;html=1;endArrow=none;endFill=0;endSize=6;" parent="1" source="108" target="121" edge="1">
                    <mxGeometry relative="1" as="geometry"/>
                </mxCell>
                <mxCell id="108" value="input = 3" style="rhombus;whiteSpace=wrap;html=1;labelBackgroundColor=none;fillColor=#fa6800;fontColor=#000000;strokeColor=#C73500;" parent="1" vertex="1">
                    <mxGeometry x="233" y="790" width="80" height="80" as="geometry"/>
                </mxCell>
                <mxCell id="115" style="edgeStyle=none;html=1;endArrow=none;endFill=0;endSize=6;" parent="1" source="109" edge="1">
                    <mxGeometry relative="1" as="geometry">
                        <mxPoint x="57" y="620" as="targetPoint"/>
                    </mxGeometry>
                </mxCell>
                <mxCell id="109" value="input judul buku&lt;br&gt;input nama peminjam&lt;br&gt;input tanggal peminjam&lt;br&gt;lnput tnggal pengembalian" style="shape=parallelogram;perimeter=parallelogramPerimeter;whiteSpace=wrap;html=1;fixedSize=1;fillColor=#6d8764;strokeColor=#3A5431;fontColor=#ffffff;" parent="1" vertex="1">
                    <mxGeometry x="-30" y="677" width="173" height="74.5" as="geometry"/>
                </mxCell>
                <mxCell id="114" value="" style="endArrow=none;html=1;endSize=6;" parent="1" edge="1">
                    <mxGeometry width="50" height="50" relative="1" as="geometry">
                        <mxPoint x="335" y="528.5" as="sourcePoint"/>
                        <mxPoint x="445" y="530" as="targetPoint"/>
                    </mxGeometry>
                </mxCell>
                <mxCell id="116" value="" style="endArrow=classic;html=1;endSize=6;" parent="1" edge="1">
                    <mxGeometry width="50" height="50" relative="1" as="geometry">
                        <mxPoint x="58" y="620" as="sourcePoint"/>
                        <mxPoint x="440" y="620" as="targetPoint"/>
                    </mxGeometry>
                </mxCell>
                <mxCell id="119" style="edgeStyle=none;html=1;endArrow=none;endFill=0;endSize=6;" parent="1" source="117" edge="1">
                    <mxGeometry relative="1" as="geometry">
                        <mxPoint x="803" y="620" as="targetPoint"/>
                    </mxGeometry>
                </mxCell>
                <mxCell id="117" value="Lihat semua peminjaman&amp;nbsp;" style="whiteSpace=wrap;html=1;fillColor=#e3c800;strokeColor=#B09500;fontColor=#000000;" parent="1" vertex="1">
                    <mxGeometry x="743" y="684.5" width="120" height="60" as="geometry"/>
                </mxCell>
                <mxCell id="120" value="" style="endArrow=classic;html=1;endSize=6;" parent="1" edge="1">
                    <mxGeometry width="50" height="50" relative="1" as="geometry">
                        <mxPoint x="800" y="620" as="sourcePoint"/>
                        <mxPoint x="446" y="620" as="targetPoint"/>
                    </mxGeometry>
                </mxCell>
                <mxCell id="123" style="edgeStyle=none;html=1;endArrow=none;endFill=0;endSize=6;" parent="1" source="121" edge="1">
                    <mxGeometry relative="1" as="geometry">
                        <mxPoint x="-70" y="830.5" as="targetPoint"/>
                    </mxGeometry>
                </mxCell>
                <mxCell id="121" value="cari peminjam" style="whiteSpace=wrap;html=1;labelBackgroundColor=none;fillColor=#f0a30a;fontColor=#000000;strokeColor=#BD7000;" parent="1" vertex="1">
                    <mxGeometry y="800.5" width="120" height="60" as="geometry"/>
                </mxCell>
                <mxCell id="124" value="" style="endArrow=none;html=1;endSize=6;endFill=0;" parent="1" edge="1">
                    <mxGeometry width="50" height="50" relative="1" as="geometry">
                        <mxPoint x="-70" y="830" as="sourcePoint"/>
                        <mxPoint x="-70" y="620" as="targetPoint"/>
                    </mxGeometry>
                </mxCell>
                <mxCell id="125" value="" style="endArrow=none;html=1;endSize=6;endFill=0;" parent="1" edge="1">
                    <mxGeometry width="50" height="50" relative="1" as="geometry">
                        <mxPoint x="-70" y="620" as="sourcePoint"/>
                        <mxPoint x="60" y="620" as="targetPoint"/>
                    </mxGeometry>
                </mxCell>
                <mxCell id="128" style="edgeStyle=none;html=1;endArrow=none;endFill=0;endSize=6;" parent="1" source="126" edge="1">
                    <mxGeometry relative="1" as="geometry">
                        <mxPoint x="920" y="826" as="targetPoint"/>
                    </mxGeometry>
                </mxCell>
                <mxCell id="126" value="Lihat tabel peminjam" style="whiteSpace=wrap;html=1;labelBackgroundColor=none;fillColor=#f0a30a;fontColor=#000000;strokeColor=#BD7000;" parent="1" vertex="1">
                    <mxGeometry x="745" y="796" width="120" height="60" as="geometry"/>
                </mxCell>
                <mxCell id="129" value="" style="endArrow=none;html=1;endSize=6;" parent="1" edge="1">
                    <mxGeometry width="50" height="50" relative="1" as="geometry">
                        <mxPoint x="920" y="830" as="sourcePoint"/>
                        <mxPoint x="920" y="620" as="targetPoint"/>
                    </mxGeometry>
                </mxCell>
                <mxCell id="130" value="" style="endArrow=none;html=1;endSize=6;" parent="1" edge="1">
                    <mxGeometry width="50" height="50" relative="1" as="geometry">
                        <mxPoint x="800" y="620" as="sourcePoint"/>
                        <mxPoint x="920" y="620" as="targetPoint"/>
                    </mxGeometry>
                </mxCell>
                <mxCell id="133" value="" style="endArrow=none;html=1;endSize=6;" parent="1" edge="1">
                    <mxGeometry width="50" height="50" relative="1" as="geometry">
                        <mxPoint x="440" y="1040" as="sourcePoint"/>
                        <mxPoint x="1502" y="1050" as="targetPoint"/>
                    </mxGeometry>
                </mxCell>
                <mxCell id="134" value="" style="endArrow=none;html=1;endSize=6;" parent="1" edge="1">
                    <mxGeometry width="50" height="50" relative="1" as="geometry">
                        <mxPoint x="1410" y="30" as="sourcePoint"/>
                        <mxPoint x="1500" y="30" as="targetPoint"/>
                    </mxGeometry>
                </mxCell>
                <mxCell id="135" value="" style="endArrow=none;html=1;endSize=6;" parent="1" edge="1">
                    <mxGeometry width="50" height="50" relative="1" as="geometry">
                        <mxPoint x="1500" y="1051" as="sourcePoint"/>
                        <mxPoint x="1500" y="30" as="targetPoint"/>
                    </mxGeometry>
                </mxCell>
                <mxCell id="136" value="END" style="rounded=1;whiteSpace=wrap;html=1;fillColor=#e51400;fontColor=#ffffff;strokeColor=#B20000;" vertex="1" parent="1">
                    <mxGeometry x="520" y="337" width="120" height="60" as="geometry"/>
                </mxCell>
            </root>
        </mxGraphModel>
    </diagram>
</mxfile>